<svg
    version="1.1"
    xmlns="http://www.w3.org/2000/svg"
    xmlns:xlink="http://www.w3.org/1999/xlink"
    viewBox="0 0 792 612"
    xml:space="preserve">
    <symbol id="throne">
        <g transform="scale(0.050)">
            <path d="M430.008,316.027v-19.008c25.938-6.682,45.158-30.271,45.158-58.266c0-33.172-26.986-60.158-60.158-60.158
                c-0.489,0-0.972,0.025-1.458,0.037v-41.4c0-21.065-9.955-41.328-26.63-54.2l-89.076-68.768
                c-24.636-19.018-59.049-19.019-83.686,0.001l-89.075,68.766c-16.675,12.873-26.63,33.135-26.63,54.201v41.4
                c-0.486-0.012-0.969-0.037-1.458-0.037c-33.172,0-60.158,26.986-60.158,60.158c0,27.994,19.22,51.584,45.158,58.266v19.008
                c-23.159,1.002-41.694,20.149-41.694,43.552c0,23.401,18.534,42.549,41.694,43.551v71.291c0,20.722,16.858,37.58,37.58,37.58
                s37.58-16.857,37.58-37.58v-71.242h197.697v71.242c0,20.722,16.858,37.58,37.58,37.58s37.58-16.857,37.58-37.58v-71.291
                c23.159-1.002,41.694-20.149,41.694-43.551C471.701,336.176,453.167,317.029,430.008,316.027z M384.849,238.752
                c0-16.629,13.529-30.157,30.158-30.157s30.157,13.529,30.157,30.158c0,16.629-13.528,30.157-30.157,30.157
                c-8.284,0-15,6.716-15,15v32.068h-15.158V238.752z M128.451,137.231c0-11.836,5.593-23.22,14.963-30.453l89.075-68.766
                c13.842-10.687,33.179-10.687,47.021-0.001l89.076,68.768c9.369,7.232,14.962,18.616,14.962,30.452v50.27
                c-17.203,10.598-28.701,29.605-28.701,51.252v77.226H157.151v-77.226c0-21.646-11.496-40.654-28.7-51.252V137.231z
                    M66.835,238.752c0-16.629,13.528-30.157,30.157-30.157c16.629,0,30.159,13.528,30.159,30.157v77.226h-15.158v-32.068
                c0-8.284-6.716-15-15-15C80.363,268.91,66.835,255.382,66.835,238.752z M127.151,474.42c0,4.179-3.4,7.579-7.579,7.579
                c-4.179,0-7.579-3.4-7.579-7.579v-71.242h15.158V474.42z M400.007,474.42c0,4.179-3.4,7.579-7.579,7.579
                c-4.179,0-7.579-3.4-7.579-7.579v-71.242h15.158V474.42z M428.102,373.178H83.898c-7.499,0-13.599-6.101-13.599-13.599
                c0-7.499,6.101-13.6,13.599-13.6h344.202c7.499,0,13.599,6.101,13.599,13.6C441.701,367.076,435.6,373.178,428.102,373.178z"/>
        </g>
    </symbol>
    <symbol id="shield">
        <g transform="scale(0.030)">
            <path d="M674.417,123.507c-0.224-9.759-7.216-18.177-16.982-19.511c-45.521-6.252-90.416-17.129-134.426-33.248
                c-43.802-16.042-92.267-38.436-144.54-67.93c-6.637-3.747-12.88-3.77-19.51,0c-51.911,29.479-100.029,51.826-144.177,67.93
                c-44.024,16.058-88.897,27.004-134.056,33.248c-9.767,1.349-16.62,9.752-17.707,19.511
                c-4.332,185.366,36.27,337.036,121.414,454.934c46.384,64.222,104.431,116.349,174.526,156.096c5.419,3.978,13.915,3.677,20.235,0
                c69.564-40.41,127.534-92.159,173.811-156.096C638.262,460.62,678.533,308.88,674.417,123.507z M520.48,555.677
                c-40.225,55.564-90.694,101.895-151.762,139.112c-61.069-37.218-111.777-83.378-151.763-139.112
                c-77.458-107.962-115.269-246.08-113.828-414.463c42.637-6.868,84.92-18.432,127.195-33.972
                c42.275-15.533,88.528-36.856,138.396-63.952c49.868,27.096,95.757,48.419,138.033,63.952
                c42.275,15.541,84.912,27.104,127.557,33.972C635.75,310.684,597.699,448.995,520.48,555.677z"/>
        </g>
    </symbol>
    <symbol id="king">
        <g transform="scale(0.060)">
            <path d="M442.434,52.012L275.781,2.863c-12.938-3.817-26.621-3.817-39.563,0L69.567,52.011
                c-12.304,3.628-20.897,15.12-20.897,27.948v138.014c0,63.872,19.013,125.375,54.984,177.86
                c35.118,51.243,83.991,90.665,141.33,114c3.552,1.445,7.284,2.168,11.016,2.168s7.464-0.724,11.015-2.168
                c57.339-23.335,106.212-62.755,141.33-114c35.97-52.486,54.983-113.988,54.983-177.86V79.96
                C463.33,67.132,454.737,55.639,442.434,52.012z M440.02,217.972c0,59.147-17.602,116.093-50.901,164.681
                c-32.53,47.466-77.79,83.978-130.889,105.587c-1.438,0.585-3.021,0.585-4.459,0c-53.099-21.609-98.36-58.12-130.889-105.587
                C89.583,334.065,71.981,277.12,71.981,217.972V79.959c0-2.565,1.719-4.863,4.18-5.589l166.652-49.149
                c4.314-1.273,8.751-1.908,13.188-1.908c4.436,0,8.873,0.636,13.187,1.909L435.842,74.37c2.459,0.725,4.178,3.023,4.178,5.589
                V217.972z"/>
            <path d="M385.15,103.555l-124.206-36.63c-3.234-0.953-6.652-0.955-9.888,0l-124.203,36.63c-7.382,2.178-12.539,9.074-12.539,16.77
                v97.647c0,51.598,15.608,101.088,45.134,143.122c22.892,32.593,53.481,59.502,88.458,77.82c2.534,1.328,5.314,1.991,8.095,1.991
                c2.78,0,5.56-0.663,8.095-1.991c34.976-18.317,65.565-45.228,88.458-77.82c29.526-42.033,45.134-91.524,45.134-143.122v-97.647
                C397.687,112.627,392.531,105.732,385.15,103.555z M374.378,217.972c0,46.777-14.142,91.635-40.897,129.723
                c-20.172,28.717-46.912,52.562-77.48,69.12c-30.568-16.559-57.309-40.403-77.48-69.12
                c-26.755-38.088-40.897-82.946-40.897-129.723v-93.29L256.001,89.77l118.377,34.912V217.972z"/>
        </g>
    </symbol>
    <symbol id="sword">
        <g transform="scale(0.050)">
            <path d="m276.917969 443.75c-6.328125 0-12.097657 2.375-16.5 6.25h-58.5v-401.332031l-47.046875-48.667969h-18.410156l-47.042969 48.667969v401.332031h-58.503907c-4.402343-3.875-10.167968-6.25-16.496093-6.25-13.808594 0-25 11.191406-25 25s11.191406 25 25 25c6.328125 0 12.09375-2.375 16.496093-6.25h83.503907v152.5h62.5v-152.5h83.5c4.402343 3.875 10.171875 6.25 16.5 6.25 13.808593 0 25-11.191406 25-25s-11.191407-25-25-25zm0 0"/>
        </g>
    </symbol>
    <symbol id="flag">
        <g transform="scale(0.50)">
            <rect style="fill: #871B1B" x="16.5" y="31" width="10" height="6"/>
            <path style="fill: #424A60" d="M3.5,0c-0.552,0-1,0.447-1,1v3v55c0,0.553,0.448,1,1,1s1-0.447,1-1V4V1C4.5,0.447,4.052,0,3.5,0z"/>
            <rect style="fill: #DD352E" x="4.5" y="4" width="22" height="29"/>
            <path style="fill: #C03A2B" d="M26.5,9v24h-6c-2.209,0-4,1.791-4,4c0,2.209,1.791,4,4,4h4h33l-11-16l11-16H26.5z"/>
            <path style="fill: #B02721" d="M16.5,37c0,2.209,1.791,4,4,4h4h2v-8h-6C18.291,33,16.5,34.791,16.5,37z"/>
        </g>
    </symbol>
</svg>
